<svg width="24" height="24" viewBox="0 0 24 24" fill="none" xmlns="http://www.w3.org/2000/svg">
<g id="ic/new">
<mask id="mask0_41_879" style="mask-type:alpha" maskUnits="userSpaceOnUse" x="0" y="0" width="24" height="24">
<rect id="Bounding box" width="24" height="24" fill="#D9D9D9"/>
</mask>
<g mask="url(#mask0_41_879)">
<path id="maps_ugc" d="M2 22L2.95 16.3C2.63333 15.6167 2.39583 14.9167 2.2375 14.2C2.07917 13.4833 2 12.75 2 12C2 10.6167 2.2625 9.31667 2.7875 8.1C3.3125 6.88333 4.025 5.825 4.925 4.925C5.825 4.025 6.88333 3.3125 8.1 2.7875C9.31667 2.2625 10.6167 2 12 2C13.3833 2 14.6833 2.2625 15.9 2.7875C17.1167 3.3125 18.175 4.025 19.075 4.925C19.975 5.825 20.6875 6.88333 21.2125 8.1C21.7375 9.31667 22 10.6167 22 12C22 13.3833 21.7375 14.6833 21.2125 15.9C20.6875 17.1167 19.975 18.175 19.075 19.075C18.175 19.975 17.1167 20.6875 15.9 21.2125C14.6833 21.7375 13.3833 22 12 22C11.25 22 10.5167 21.9208 9.8 21.7625C9.08333 21.6042 8.38333 21.3667 7.7 21.05L2 22Z" fill="#59CFB9"/>
<path id="N" d="M16.1289 7.05078V16.9492H14.3516L10.0039 10.6602H9.92188V16.9492H7.87109V7.05078H9.67578L13.9961 13.3398H14.0918V7.05078H16.1289Z" fill="white"/>
</g>
</g>
</svg>
